<svg width="181" height="66" viewBox="0 0 181 66" fill="none" xmlns="http://www.w3.org/2000/svg">
<path d="M2.692 33.3669V2.39385H23.1996V7.79297H9.24051V15.1733H21.8384V20.5724H9.24051V33.3669H2.692ZM27.4833 33.3669V10.1371H33.926V33.3669H27.4833ZM30.7198 7.14266C29.7619 7.14266 28.9402 6.82506 28.2546 6.18987C27.5791 5.5446 27.2413 4.7733 27.2413 3.87596C27.2413 2.98871 27.5791 2.22749 28.2546 1.5923C28.9402 0.947031 29.7619 0.624394 30.7198 0.624394C31.6776 0.624394 32.4943 0.947031 33.1698 1.5923C33.8554 2.22749 34.1982 2.98871 34.1982 3.87596C34.1982 4.7733 33.8554 5.5446 33.1698 6.18987C32.4943 6.82506 31.6776 7.14266 30.7198 7.14266ZM39.2079 33.3669V2.39385H45.6505V14.039H45.8471C46.1294 13.4139 46.5378 12.7787 47.0721 12.1334C47.6166 11.4781 48.3224 10.9336 49.1894 10.5001C50.0666 10.0565 51.1555 9.83466 52.4561 9.83466C54.15 9.83466 55.7127 10.2783 57.1444 11.1655C58.5761 12.0427 59.7205 13.3685 60.5775 15.143C61.4345 16.9074 61.863 19.1205 61.863 21.7823C61.863 24.3735 61.4446 26.5613 60.6077 28.3459C59.781 30.1204 58.6518 31.4664 57.2201 32.3839C55.7984 33.2913 54.2054 33.745 52.441 33.745C51.1908 33.745 50.1271 33.5383 49.2499 33.125C48.3828 32.7116 47.672 32.1923 47.1175 31.5672C46.563 30.932 46.1395 30.2918 45.8471 29.6465H45.5598V33.3669H39.2079ZM45.5144 21.752C45.5144 23.1333 45.706 24.3382 46.0891 25.3666C46.4722 26.395 47.0268 27.1965 47.7527 27.7712C48.4786 28.3358 49.3608 28.6181 50.3993 28.6181C51.4479 28.6181 52.3351 28.3308 53.0611 27.7561C53.787 27.1713 54.3365 26.3647 54.7095 25.3363C55.0927 24.2978 55.2842 23.1031 55.2842 21.752C55.2842 20.4111 55.0977 19.2314 54.7247 18.2131C54.3516 17.1948 53.8021 16.3983 53.0762 15.8236C52.3503 15.2489 51.458 14.9615 50.3993 14.9615C49.3508 14.9615 48.4635 15.2388 47.7376 15.7933C47.0217 16.3479 46.4722 17.1343 46.0891 18.1526C45.706 19.1709 45.5144 20.3707 45.5144 21.752ZM76.7484 33.8207C74.3589 33.8207 72.3021 33.3367 70.578 32.3688C68.864 31.3908 67.5432 30.0095 66.6156 28.2249C65.688 26.4303 65.2242 24.3079 65.2242 21.8579C65.2242 19.4684 65.688 17.3712 66.6156 15.5665C67.5432 13.7617 68.8488 12.3553 70.5326 11.347C72.2264 10.3388 74.2127 9.83466 76.4913 9.83466C78.0238 9.83466 79.4505 10.0817 80.7713 10.5757C82.1021 11.0597 83.2616 11.7906 84.2497 12.7686C85.2478 13.7466 86.0242 14.9767 86.5787 16.4588C87.1332 17.9308 87.4105 19.6549 87.4105 21.631V23.4005H67.7952V19.4079H81.346C81.346 18.4803 81.1443 17.6586 80.741 16.9427C80.3377 16.2269 79.7781 15.6673 79.0623 15.264C78.3565 14.8506 77.5348 14.644 76.5971 14.644C75.6192 14.644 74.7521 14.8708 73.9959 15.3245C73.2498 15.7681 72.665 16.368 72.2416 17.1242C71.8181 17.8703 71.6013 18.7021 71.5912 19.6196V23.4156C71.5912 24.565 71.803 25.5581 72.2264 26.395C72.66 27.2318 73.27 27.8771 74.0564 28.3308C74.8428 28.7845 75.7754 29.0114 76.8542 29.0114C77.5701 29.0114 78.2255 28.9105 78.8203 28.7089C79.4152 28.5072 79.9243 28.2048 80.3478 27.8015C80.7713 27.3982 81.0939 26.9041 81.3157 26.3194L87.2744 26.7126C86.9719 28.1443 86.3519 29.3945 85.4142 30.4632C84.4866 31.5219 83.2868 32.3486 81.8148 32.9435C80.3528 33.5283 78.664 33.8207 76.7484 33.8207ZM91.6149 33.3669V10.1371H97.8609V14.1902H98.1029C98.5263 12.7485 99.2371 11.6596 100.235 10.9236C101.233 10.1775 102.383 9.80441 103.683 9.80441C104.006 9.80441 104.354 9.82457 104.727 9.8649C105.1 9.90523 105.428 9.96068 105.71 10.0313V15.748C105.408 15.6572 104.989 15.5766 104.455 15.506C103.92 15.4354 103.431 15.4001 102.988 15.4001C102.04 15.4001 101.193 15.6068 100.447 16.0202C99.711 16.4235 99.1262 16.9881 98.6927 17.714C98.2692 18.44 98.0575 19.2768 98.0575 20.2246V33.3669H91.6149ZM118.455 33.8207C116.076 33.8207 114.029 33.3165 112.315 32.3083C110.611 31.29 109.301 29.8784 108.383 28.0737C107.476 26.2689 107.022 24.192 107.022 21.8428C107.022 19.4633 107.481 17.3763 108.398 15.5816C109.326 13.7769 110.642 12.3704 112.346 11.3621C114.049 10.3438 116.076 9.83466 118.425 9.83466C120.452 9.83466 122.226 10.2027 123.749 10.9387C125.271 11.6747 126.476 12.7081 127.363 14.039C128.25 15.3699 128.739 16.9327 128.83 18.7273H122.751C122.579 17.5678 122.125 16.6352 121.389 15.9295C120.663 15.2136 119.711 14.8557 118.531 14.8557C117.533 14.8557 116.661 15.1279 115.915 15.6724C115.179 16.2067 114.604 16.9881 114.191 18.0165C113.777 19.0449 113.571 20.2901 113.571 21.752C113.571 23.2341 113.772 24.4944 114.175 25.5329C114.589 26.5714 115.169 27.3629 115.915 27.9073C116.661 28.4518 117.533 28.724 118.531 28.724C119.267 28.724 119.927 28.5728 120.512 28.2703C121.107 27.9678 121.596 27.5292 121.979 26.9545C122.372 26.3698 122.63 25.669 122.751 24.8524H128.83C128.729 26.6269 128.245 28.1896 127.378 29.5407C126.521 30.8816 125.337 31.9302 123.824 32.6864C122.312 33.4426 120.522 33.8207 118.455 33.8207ZM143.542 33.8207C141.152 33.8207 139.095 33.3367 137.371 32.3688C135.657 31.3908 134.336 30.0095 133.409 28.2249C132.481 26.4303 132.018 24.3079 132.018 21.8579C132.018 19.4684 132.481 17.3712 133.409 15.5665C134.336 13.7617 135.642 12.3553 137.326 11.347C139.02 10.3388 141.006 9.83466 143.285 9.83466C144.817 9.83466 146.244 10.0817 147.565 10.5757C148.895 11.0597 150.055 11.7906 151.043 12.7686C152.041 13.7466 152.817 14.9767 153.372 16.4588C153.927 17.9308 154.204 19.6549 154.204 21.631V23.4005H134.589V19.4079H148.139C148.139 18.4803 147.938 17.6586 147.534 16.9427C147.131 16.2269 146.571 15.6673 145.856 15.264C145.15 14.8506 144.328 14.644 143.39 14.644C142.412 14.644 141.545 14.8708 140.789 15.3245C140.043 15.7681 139.458 16.368 139.035 17.1242C138.611 17.8703 138.395 18.7021 138.385 19.6196V23.4156C138.385 24.565 138.596 25.5581 139.02 26.395C139.453 27.2318 140.063 27.8771 140.85 28.3308C141.636 28.7845 142.569 29.0114 143.648 29.0114C144.363 29.0114 145.019 28.9105 145.614 28.7089C146.208 28.5072 146.718 28.2048 147.141 27.8015C147.565 27.3982 147.887 26.9041 148.109 26.3194L154.068 26.7126C153.765 28.1443 153.145 29.3945 152.207 30.4632C151.28 31.5219 150.08 32.3486 148.608 32.9435C147.146 33.5283 145.457 33.8207 143.542 33.8207ZM164.851 2.39385V33.3669H158.408V2.39385H164.851ZM176.454 2.39385V33.3669H170.012V2.39385H176.454Z" fill="black"/>
<path d="M8.74143 44.2143V46.192H0.870188V44.2143H8.74143ZM3.16432 40.5754H5.498V55.0521C5.498 55.7114 5.59359 56.2058 5.78477 56.5354C5.98254 56.8584 6.23305 57.076 6.5363 57.1881C6.84613 57.2935 7.17246 57.3463 7.51526 57.3463C7.77236 57.3463 7.98331 57.3331 8.14812 57.3067C8.31293 57.2738 8.44477 57.2474 8.54366 57.2276L9.01831 59.324C8.86009 59.3833 8.63925 59.4426 8.35578 59.502C8.07231 59.5679 7.71303 59.6008 7.27793 59.6008C6.6187 59.6008 5.97265 59.4591 5.33979 59.1756C4.71352 58.8922 4.19272 58.4604 3.7774 57.8802C3.36868 57.3001 3.16432 56.5684 3.16432 55.685V40.5754ZM18.4569 59.7195C16.9934 59.7195 15.7309 59.3965 14.6696 58.7504C13.6148 58.0978 12.8007 57.1881 12.2271 56.0212C11.6602 54.8478 11.3767 53.4832 11.3767 51.9274C11.3767 50.3716 11.6602 49.0004 12.2271 47.8138C12.8007 46.6205 13.5983 45.691 14.6201 45.0252C15.6485 44.3528 16.8483 44.0166 18.2196 44.0166C19.0106 44.0166 19.7918 44.1484 20.5631 44.4121C21.3344 44.6758 22.0365 45.1043 22.6694 45.6976C23.3022 46.2843 23.8066 47.0622 24.1823 48.0313C24.5581 49.0004 24.746 50.1936 24.746 51.6109V52.5998H13.038V50.5825H22.3727C22.3727 49.7255 22.2013 48.9608 21.8585 48.2884C21.5223 47.616 21.0411 47.0853 20.4148 46.6964C19.7951 46.3074 19.0634 46.1129 18.2196 46.1129C17.29 46.1129 16.4858 46.3437 15.8068 46.8051C15.1343 47.26 14.6168 47.8533 14.2543 48.5851C13.8917 49.3168 13.7104 50.1013 13.7104 50.9385V52.2834C13.7104 53.4304 13.9082 54.4028 14.3037 55.2005C14.7058 55.9915 15.2629 56.5947 15.9749 57.0101C16.6868 57.4188 17.5142 57.6231 18.4569 57.6231C19.07 57.6231 19.6237 57.5374 20.1181 57.366C20.6192 57.1881 21.051 56.9244 21.4135 56.575C21.7761 56.219 22.0563 55.7773 22.2541 55.2499L24.5086 55.8828C24.2713 56.6475 23.8725 57.3199 23.3121 57.9C22.7518 58.4736 22.0596 58.9218 21.2355 59.2449C20.4115 59.5613 19.4853 59.7195 18.4569 59.7195ZM34.4663 59.7195C33.0424 59.7195 31.8162 59.3833 30.7878 58.7109C29.7594 58.0385 28.9683 57.1122 28.4146 55.9322C27.8608 54.7522 27.584 53.4041 27.584 51.8878C27.584 50.3452 27.8674 48.9839 28.4344 47.8039C29.0079 46.6173 29.8056 45.691 30.8274 45.0252C31.8558 44.3528 33.0556 44.0166 34.4268 44.0166C35.4948 44.0166 36.4572 44.2143 37.3142 44.6099C38.1712 45.0054 38.8733 45.5592 39.4205 46.2712C39.9676 46.9831 40.3072 47.8138 40.439 48.7631H38.1053C37.9273 48.0709 37.5318 47.4578 36.9187 46.9238C36.3122 46.3832 35.4948 46.1129 34.4663 46.1129C33.5566 46.1129 32.7589 46.3503 32.0733 46.8249C31.3943 47.293 30.8636 47.9555 30.4813 48.8125C30.1055 49.6629 29.9176 50.6616 29.9176 51.8087C29.9176 52.9821 30.1022 54.004 30.4714 54.8741C30.8472 55.7443 31.3745 56.42 32.0536 56.9013C32.7392 57.3825 33.5434 57.6231 34.4663 57.6231C35.0728 57.6231 35.6233 57.5177 36.1177 57.3067C36.6122 57.0958 37.0308 56.7925 37.3736 56.397C37.7164 56.0014 37.9603 55.5268 38.1053 54.973H40.439C40.3072 55.8696 39.9808 56.6771 39.46 57.3957C38.9458 58.1077 38.2635 58.6746 37.4131 59.0965C36.5693 59.5118 35.587 59.7195 34.4663 59.7195ZM46.1842 50.2661V59.4031H43.8505V39.1514H46.1842V46.5876H46.382C46.738 45.8031 47.2719 45.1801 47.9839 44.7187C48.7025 44.2506 49.6584 44.0166 50.8516 44.0166C51.8866 44.0166 52.793 44.2242 53.5709 44.6396C54.3488 45.0483 54.952 45.6778 55.3805 46.5283C55.8156 47.3721 56.0332 48.4466 56.0332 49.7519V59.4031H53.6995V49.9101C53.6995 48.7037 53.3863 47.7709 52.7601 47.1117C52.1404 46.4459 51.2801 46.1129 50.1792 46.1129C49.4145 46.1129 48.7289 46.2745 48.1224 46.5975C47.5225 46.9205 47.0478 47.3919 46.6984 48.0115C46.3556 48.6312 46.1842 49.3827 46.1842 50.2661ZM62.6362 50.2661V59.4031H60.3025V44.2143H62.5571V46.5876H62.7549C63.1108 45.8163 63.6514 45.1966 64.3766 44.7286C65.1017 44.2539 66.0378 44.0166 67.1849 44.0166C68.2133 44.0166 69.1132 44.2275 69.8845 44.6494C70.6558 45.0648 71.2557 45.6976 71.6842 46.548C72.1127 47.3919 72.3269 48.4598 72.3269 49.7519V59.4031H69.9932V49.9101C69.9932 48.7169 69.6834 47.7874 69.0637 47.1216C68.444 46.4491 67.5936 46.1129 66.5125 46.1129C65.7676 46.1129 65.1017 46.2745 64.515 46.5975C63.9349 46.9205 63.4767 47.3919 63.1405 48.0115C62.8043 48.6312 62.6362 49.3827 62.6362 50.2661ZM82.7618 59.7195C81.3906 59.7195 80.1875 59.3932 79.1525 58.7405C78.1241 58.0879 77.3198 57.1749 76.7397 56.0014C76.1661 54.828 75.8794 53.4568 75.8794 51.8878C75.8794 50.3057 76.1661 48.9246 76.7397 47.7445C77.3198 46.5645 78.1241 45.6482 79.1525 44.9955C80.1875 44.3429 81.3906 44.0166 82.7618 44.0166C84.133 44.0166 85.3328 44.3429 86.3612 44.9955C87.3962 45.6482 88.2004 46.5645 88.774 47.7445C89.3541 48.9246 89.6441 50.3057 89.6441 51.8878C89.6441 53.4568 89.3541 54.828 88.774 56.0014C88.2004 57.1749 87.3962 58.0879 86.3612 58.7405C85.3328 59.3932 84.133 59.7195 82.7618 59.7195ZM82.7618 57.6231C83.8033 57.6231 84.6603 57.3562 85.3328 56.8222C86.0052 56.2882 86.5029 55.5861 86.8259 54.7159C87.149 53.8457 87.3105 52.903 87.3105 51.8878C87.3105 50.8726 87.149 49.9266 86.8259 49.0498C86.5029 48.173 86.0052 47.4644 85.3328 46.9238C84.6603 46.3832 83.8033 46.1129 82.7618 46.1129C81.7202 46.1129 80.8632 46.3832 80.1907 46.9238C79.5183 47.4644 79.0206 48.173 78.6976 49.0498C78.3746 49.9266 78.213 50.8726 78.213 51.8878C78.213 52.903 78.3746 53.8457 78.6976 54.7159C79.0206 55.5861 79.5183 56.2882 80.1907 56.8222C80.8632 57.3562 81.7202 57.6231 82.7618 57.6231ZM95.5402 39.1514V59.4031H93.2065V39.1514H95.5402ZM105.985 59.7195C104.614 59.7195 103.411 59.3932 102.376 58.7405C101.347 58.0879 100.543 57.1749 99.9628 56.0014C99.3893 54.828 99.1025 53.4568 99.1025 51.8878C99.1025 50.3057 99.3893 48.9246 99.9628 47.7445C100.543 46.5645 101.347 45.6482 102.376 44.9955C103.411 44.3429 104.614 44.0166 105.985 44.0166C107.356 44.0166 108.556 44.3429 109.584 44.9955C110.619 45.6482 111.424 46.5645 111.997 47.7445C112.577 48.9246 112.867 50.3057 112.867 51.8878C112.867 53.4568 112.577 54.828 111.997 56.0014C111.424 57.1749 110.619 58.0879 109.584 58.7405C108.556 59.3932 107.356 59.7195 105.985 59.7195ZM105.985 57.6231C107.026 57.6231 107.883 57.3562 108.556 56.8222C109.228 56.2882 109.726 55.5861 110.049 54.7159C110.372 53.8457 110.534 52.903 110.534 51.8878C110.534 50.8726 110.372 49.9266 110.049 49.0498C109.726 48.173 109.228 47.4644 108.556 46.9238C107.883 46.3832 107.026 46.1129 105.985 46.1129C104.943 46.1129 104.086 46.3832 103.414 46.9238C102.741 47.4644 102.244 48.173 101.921 49.0498C101.598 49.9266 101.436 50.8726 101.436 51.8878C101.436 52.903 101.598 53.8457 101.921 54.7159C102.244 55.5861 102.741 56.2882 103.414 56.8222C104.086 57.3562 104.943 57.6231 105.985 57.6231ZM122.56 65.4153C121.433 65.4153 120.464 65.2702 119.653 64.9802C118.842 64.6967 118.167 64.321 117.626 63.8529C117.092 63.3914 116.667 62.897 116.351 62.3696L118.21 61.0643C118.42 61.3412 118.687 61.6577 119.011 62.0136C119.334 62.3762 119.775 62.6894 120.336 62.953C120.903 63.2233 121.644 63.3585 122.56 63.3585C123.787 63.3585 124.799 63.0618 125.596 62.4685C126.394 61.8752 126.793 60.9457 126.793 59.68V56.5947H126.595C126.424 56.8716 126.18 57.2144 125.863 57.6231C125.553 58.0253 125.105 58.3846 124.518 58.701C123.938 59.0108 123.154 59.1658 122.165 59.1658C120.939 59.1658 119.838 58.8757 118.862 58.2956C117.893 57.7154 117.125 56.8716 116.558 55.7641C115.998 54.6566 115.718 53.3118 115.718 51.7296C115.718 50.1738 115.991 48.8191 116.538 47.6654C117.086 46.5052 117.847 45.6086 118.823 44.9758C119.798 44.3363 120.926 44.0166 122.204 44.0166C123.193 44.0166 123.978 44.1814 124.558 44.511C125.145 44.834 125.593 45.2032 125.903 45.6185C126.219 46.0272 126.463 46.3634 126.635 46.6271H126.872V44.2143H129.126V59.8382C129.126 61.1435 128.83 62.2048 128.236 63.0223C127.65 63.8463 126.859 64.4495 125.863 64.8319C124.874 65.2208 123.773 65.4153 122.56 65.4153ZM122.481 57.0694C123.417 57.0694 124.209 56.8551 124.855 56.4266C125.501 55.9981 125.992 55.3818 126.328 54.5775C126.664 53.7732 126.832 52.8107 126.832 51.69C126.832 50.5957 126.667 49.6299 126.338 48.7927C126.008 47.9555 125.52 47.2996 124.874 46.8249C124.228 46.3503 123.431 46.1129 122.481 46.1129C121.493 46.1129 120.668 46.3634 120.009 46.8645C119.357 47.3655 118.865 48.0379 118.536 48.8817C118.213 49.7255 118.051 50.6616 118.051 51.69C118.051 52.7448 118.216 53.6776 118.546 54.4885C118.882 55.2928 119.376 55.9256 120.029 56.3871C120.688 56.842 121.506 57.0694 122.481 57.0694ZM133.398 59.4031V44.2143H135.732V59.4031H133.398ZM134.585 41.6829C134.13 41.6829 133.738 41.528 133.408 41.2181C133.085 40.9083 132.924 40.5358 132.924 40.1007C132.924 39.6656 133.085 39.2932 133.408 38.9833C133.738 38.6735 134.13 38.5186 134.585 38.5186C135.04 38.5186 135.429 38.6735 135.752 38.9833C136.081 39.2932 136.246 39.6656 136.246 40.1007C136.246 40.5358 136.081 40.9083 135.752 41.2181C135.429 41.528 135.04 41.6829 134.585 41.6829ZM146.374 59.7195C144.911 59.7195 143.649 59.3965 142.587 58.7504C141.532 58.0978 140.718 57.1881 140.145 56.0212C139.578 54.8478 139.294 53.4832 139.294 51.9274C139.294 50.3716 139.578 49.0004 140.145 47.8138C140.718 46.6205 141.516 45.691 142.538 45.0252C143.566 44.3528 144.766 44.0166 146.137 44.0166C146.928 44.0166 147.709 44.1484 148.481 44.4121C149.252 44.6758 149.954 45.1043 150.587 45.6976C151.22 46.2843 151.724 47.0622 152.1 48.0313C152.476 49.0004 152.664 50.1936 152.664 51.6109V52.5998H140.956V50.5825H150.29C150.29 49.7255 150.119 48.9608 149.776 48.2884C149.44 47.616 148.959 47.0853 148.332 46.6964C147.713 46.3074 146.981 46.1129 146.137 46.1129C145.208 46.1129 144.403 46.3437 143.724 46.8051C143.052 47.26 142.534 47.8533 142.172 48.5851C141.809 49.3168 141.628 50.1013 141.628 50.9385V52.2834C141.628 53.4304 141.826 54.4028 142.221 55.2005C142.623 55.9915 143.18 56.5947 143.892 57.0101C144.604 57.4188 145.432 57.6231 146.374 57.6231C146.988 57.6231 147.541 57.5374 148.036 57.366C148.537 57.1881 148.969 56.9244 149.331 56.575C149.694 56.219 149.974 55.7773 150.172 55.2499L152.426 55.8828C152.189 56.6475 151.79 57.3199 151.23 57.9C150.669 58.4736 149.977 58.9218 149.153 59.2449C148.329 59.5613 147.403 59.7195 146.374 59.7195ZM166.972 47.616L164.876 48.2093C164.744 47.8599 164.549 47.5204 164.292 47.1908C164.042 46.8546 163.699 46.5777 163.264 46.3602C162.829 46.1426 162.272 46.0338 161.593 46.0338C160.663 46.0338 159.889 46.2481 159.269 46.6766C158.656 47.0985 158.349 47.6358 158.349 48.2884C158.349 48.8685 158.56 49.3267 158.982 49.6629C159.404 49.9991 160.063 50.2793 160.96 50.5034L163.215 51.0572C164.573 51.3868 165.584 51.8911 166.25 52.5701C166.916 53.2425 167.249 54.1094 167.249 55.1708C167.249 56.041 166.999 56.8189 166.498 57.5045C166.003 58.1901 165.311 58.7307 164.421 59.1262C163.531 59.5217 162.496 59.7195 161.316 59.7195C159.767 59.7195 158.485 59.3833 157.469 58.7109C156.454 58.0385 155.811 57.0562 155.541 55.7641L157.756 55.2104C157.967 56.0278 158.366 56.6409 158.953 57.0496C159.546 57.4583 160.321 57.6627 161.276 57.6627C162.364 57.6627 163.228 57.432 163.867 56.9705C164.513 56.5025 164.836 55.9421 164.836 55.2895C164.836 54.7621 164.652 54.3204 164.283 53.9644C163.913 53.6018 163.346 53.3315 162.582 53.1535L160.05 52.5602C158.659 52.2306 157.637 51.7197 156.985 51.0275C156.339 50.3287 156.016 49.4553 156.016 48.4071C156.016 47.5501 156.256 46.7919 156.738 46.1327C157.225 45.4735 157.888 44.956 158.725 44.5802C159.569 44.2045 160.525 44.0166 161.593 44.0166C163.096 44.0166 164.276 44.3462 165.133 45.0054C165.997 45.6647 166.61 46.5348 166.972 47.616Z" fill="black"/>
</svg>
